<svg width="60" height="60" viewBox="0 0 60 60" fill="none" xmlns="http://www.w3.org/2000/svg">
<path opacity="0.4" d="M33.9153 11.6473V12.1964C32.4432 12.1675 30.9712 12.1675 29.4992 12.1675V11.6762C29.4992 9.68199 27.8211 8.06351 25.8191 8.06351H22.9045C19.5777 8.06351 16.8691 5.40457 16.8691 2.16761C16.8691 0.982649 17.8701 0 19.0772 0C20.3137 0 21.2852 0.982649 21.2852 2.16761C21.2852 3.03465 22.0213 3.72829 22.9045 3.72829H25.8191C30.2646 3.75719 33.8858 7.31207 33.9153 11.6473Z" fill="white"/>
<path d="M29.4995 12.1681C30.9715 12.1681 32.4436 12.1681 33.9156 12.197C36.7125 12.197 39.5093 12.2548 42.3356 12.2837C52.5515 12.2837 60 19.5669 60 29.6246V42.5435C60 52.6012 52.5515 59.8844 42.3356 59.8844C38.2434 59.9711 34.1511 60 30.0294 60C25.9078 60 21.7566 59.9711 17.6644 59.8844C7.44848 59.8844 0 52.6012 0 42.5435V29.6246C0 19.5669 7.44848 12.2837 17.6938 12.2837C21.5505 12.2259 25.4956 12.1681 29.4995 12.1681ZM21.2561 28.6997C20.0196 28.6997 19.0481 29.6824 19.0481 30.8673V33.902H15.9274C14.7203 33.902 13.7193 34.8846 13.7193 36.0696C13.7193 37.2835 14.7203 38.2372 15.9274 38.2372H19.0481V41.3008C19.0481 42.4857 20.0196 43.4684 21.2561 43.4684C22.4632 43.4684 23.4642 42.4857 23.4642 41.3008V38.2372H26.5554C27.7625 38.2372 28.7635 37.2835 28.7635 36.0696C28.7635 34.8846 27.7625 33.902 26.5554 33.902H23.4642V30.8673C23.4642 29.6824 22.4632 28.6997 21.2561 28.6997ZM44.3965 38.9597H44.1021C42.8656 38.9597 41.894 39.9424 41.894 41.1273C41.894 42.3412 42.8656 43.295 44.1021 43.295H44.3965C45.6035 43.295 46.6045 42.3412 46.6045 41.1273C46.6045 39.9424 45.6035 38.9597 44.3965 38.9597ZM39.3621 29.0176H39.0677C37.8312 29.0176 36.8597 30.0003 36.8597 31.1852C36.8597 32.3991 37.8312 33.3529 39.0677 33.3529H39.3621C40.5692 33.3529 41.5702 32.3991 41.5702 31.1852C41.5702 30.0003 40.5692 29.0176 39.3621 29.0176Z" fill="white"/>
</svg>
