<svg width="58" height="71" viewBox="0 0 58 71" fill="none" xmlns="http://www.w3.org/2000/svg">
<path fill-rule="evenodd" clip-rule="evenodd" d="M7.57399 0.232792C5.86033 0.632843 3.95491 1.78071 2.57639 3.24356C-1.92589 8.0209 0.100039 19.0143 7.37509 19.1295L19.9812 19.2628C32.1176 19.3909 32.668 19.4175 34.7517 19.9721C43.0004 22.167 49.2418 28.1173 51.7136 36.1423C52.3334 38.1551 52.4093 38.8055 52.4292 42.2719C52.448 45.5916 52.3665 46.456 51.8615 48.2764C49.4572 56.9459 42.3145 63.4768 33.2751 65.2714C31.5355 65.6167 26.5083 65.6167 24.7687 65.2714C15.7292 63.4768 8.58655 56.9459 6.18223 48.2764C5.65482 46.375 5.59242 45.6049 5.59242 41.0022V35.8546V35.6242C5.60388 33.758 8.11058 33.2651 11.2899 33.2651H14.0841L14.1819 39.3322C14.269 44.7383 14.34 45.5784 14.8346 47.0435C16.248 51.2309 19.741 54.7 24.2005 56.3452C25.4789 56.8171 26.2203 56.9027 29.0219 56.9027C31.8235 56.9027 32.5648 56.8171 33.8433 56.3452C39.7261 54.1749 43.4397 49.3505 43.8502 43.3457C44.0338 40.6557 43.62 38.6472 42.3397 36.0172C40.4109 32.0552 36.4954 29.0485 32.0779 28.1373C30.6729 27.8476 28.0289 27.7695 19.5992 27.7692C8.04538 27.7687 7.02264 27.8606 4.88852 29.0892C3.25712 30.0284 1.27325 32.2691 0.58132 33.9539C0.0289446 35.2987 -0.00849239 35.724 0.001185 40.5206C0.00907971 44.4458 0.117823 46.1458 0.464426 47.7643C1.72656 53.6567 4.32545 58.4341 8.50939 62.5531C19.9496 73.8156 38.0942 73.8156 49.5344 62.5531C55.0887 57.085 57.9621 50.3282 57.9995 42.6472C58.0235 37.7062 57.1225 33.8893 54.9282 29.6374C51.7008 23.3832 45.8249 18.16 39.3359 15.7772C35.3939 14.3296 34.2792 14.1743 26.7299 14.0207L19.5992 13.8755L19.4718 10.498C19.3598 7.52402 19.2643 6.95234 18.6734 5.71441C16.7054 1.59106 11.9067 -0.778969 7.57399 0.232792ZM7.6015 5.95635C5.12409 7.48574 4.75762 10.8976 6.87442 12.7234C8.00769 13.7012 9.17433 13.9976 11.8955 13.9991L14.1238 14.0006L14.1182 11.4362C14.1116 8.45297 13.6697 7.17426 12.3179 6.22855C11.1414 5.40543 8.72 5.26558 7.6015 5.95635ZM19.5263 38.8191C19.6208 43.8801 19.6837 44.5321 20.2058 45.8363C21.007 47.8381 22.9098 49.8116 25.0254 50.8348C26.5626 51.5781 26.9316 51.6537 29.0165 51.6499C30.9655 51.6467 31.5347 51.5451 32.7701 50.9794C40.1598 47.5969 37.0439 33.7655 31.5686 33.3902L25.4955 33.3149L19.4224 33.2396L19.5263 38.8191Z" fill="white"/>
</svg>
