<svg width="244" height="31" viewBox="0 0 244 31" fill="none" xmlns="http://www.w3.org/2000/svg">
<path d="M2.925 6.915C2.925 5.625 3.3 4.605 4.05 3.855C4.8 3.105 5.82 2.73 7.11 2.73H21.96C22.17 3.06 22.35 3.495 22.5 4.035C22.68 4.575 22.77 5.145 22.77 5.745C22.77 6.885 22.515 7.695 22.005 8.175C21.525 8.655 20.88 8.895 20.07 8.895H10.575V13.08H20.7C20.91 13.41 21.09 13.845 21.24 14.385C21.42 14.895 21.51 15.45 21.51 16.05C21.51 17.19 21.27 18 20.79 18.48C20.31 18.96 19.665 19.2 18.855 19.2H10.575V23.925H22.14C22.35 24.255 22.53 24.69 22.68 25.23C22.86 25.77 22.95 26.34 22.95 26.94C22.95 28.08 22.695 28.905 22.185 29.415C21.705 29.895 21.06 30.135 20.25 30.135H7.11C5.82 30.135 4.8 29.76 4.05 29.01C3.3 28.26 2.925 27.24 2.925 25.95V6.915ZM25.6141 19.065C25.6141 17.085 25.9141 15.375 26.5141 13.935C27.1141 12.465 27.9391 11.25 28.9891 10.29C30.0691 9.33 31.3141 8.625 32.7241 8.175C34.1641 7.695 35.7091 7.455 37.3591 7.455C37.9591 7.455 38.5441 7.515 39.1141 7.635C39.6841 7.725 40.1491 7.845 40.5091 7.995V0.704999C40.8091 0.614998 41.2891 0.524999 41.9491 0.435C42.6091 0.315 43.2841 0.254999 43.9741 0.254999C44.6341 0.254999 45.2191 0.299999 45.7291 0.389998C46.2691 0.479998 46.7191 0.659999 47.0791 0.929999C47.4391 1.2 47.7091 1.575 47.8891 2.055C48.0691 2.505 48.1591 3.105 48.1591 3.855V25.185C48.1591 26.595 47.4991 27.72 46.1791 28.56C45.3091 29.13 44.1841 29.625 42.8041 30.045C41.4241 30.495 39.8341 30.72 38.0341 30.72C36.0841 30.72 34.3291 30.45 32.7691 29.91C31.2391 29.37 29.9341 28.59 28.8541 27.57C27.8041 26.55 26.9941 25.335 26.4241 23.925C25.8841 22.485 25.6141 20.865 25.6141 19.065ZM38.3941 13.44C36.7741 13.44 35.5291 13.905 34.6591 14.835C33.7891 15.765 33.3541 17.175 33.3541 19.065C33.3541 20.925 33.7591 22.335 34.5691 23.295C35.3791 24.225 36.5491 24.69 38.0791 24.69C38.6191 24.69 39.0991 24.615 39.5191 24.465C39.9691 24.285 40.3141 24.09 40.5541 23.88V13.98C39.9541 13.62 39.2341 13.44 38.3941 13.44ZM53.1513 8.445C53.4513 8.355 53.9163 8.265 54.5463 8.175C55.2063 8.085 55.8813 8.04 56.5713 8.04C57.2313 8.04 57.8163 8.085 58.3263 8.175C58.8663 8.265 59.3163 8.445 59.6763 8.715C60.0363 8.985 60.3063 9.36 60.4863 9.84C60.6963 10.29 60.8013 10.89 60.8013 11.64V21.315C60.8013 22.545 61.1013 23.43 61.7013 23.97C62.3013 24.48 63.1713 24.735 64.3113 24.735C65.0013 24.735 65.5563 24.675 65.9763 24.555C66.4263 24.435 66.7713 24.315 67.0113 24.195V8.445C67.3113 8.355 67.7763 8.265 68.4063 8.175C69.0663 8.085 69.7413 8.04 70.4313 8.04C71.0913 8.04 71.6763 8.085 72.1863 8.175C72.7263 8.265 73.1763 8.445 73.5363 8.715C73.8963 8.985 74.1663 9.36 74.3463 9.84C74.5563 10.29 74.6613 10.89 74.6613 11.64V25.32C74.6613 26.82 74.0313 27.945 72.7713 28.695C71.7213 29.355 70.4613 29.85 68.9913 30.18C67.5513 30.54 65.9763 30.72 64.2663 30.72C62.6463 30.72 61.1463 30.54 59.7663 30.18C58.4163 29.82 57.2463 29.265 56.2563 28.515C55.2663 27.765 54.5013 26.805 53.9613 25.635C53.4213 24.435 53.1513 22.995 53.1513 21.315V8.445ZM91.8977 13.485C91.1477 13.485 90.4277 13.605 89.7377 13.845C89.0777 14.085 88.4927 14.445 87.9827 14.925C87.5027 15.375 87.1127 15.945 86.8127 16.635C86.5127 17.325 86.3627 18.135 86.3627 19.065C86.3627 20.925 86.8877 22.32 87.9377 23.25C89.0177 24.18 90.3227 24.645 91.8527 24.645C92.7527 24.645 93.5327 24.54 94.1927 24.33C94.8527 24.12 95.4377 23.895 95.9477 23.655C96.5477 24.075 96.9977 24.54 97.2977 25.05C97.5977 25.53 97.7477 26.115 97.7477 26.805C97.7477 28.035 97.1627 28.995 95.9927 29.685C94.8227 30.345 93.2027 30.675 91.1327 30.675C89.2427 30.675 87.5327 30.405 86.0027 29.865C84.4727 29.295 83.1527 28.515 82.0427 27.525C80.9627 26.505 80.1227 25.29 79.5227 23.88C78.9227 22.47 78.6227 20.91 78.6227 19.2C78.6227 17.22 78.9377 15.495 79.5677 14.025C80.2277 12.525 81.1127 11.295 82.2227 10.335C83.3327 9.375 84.6077 8.655 86.0477 8.175C87.5177 7.695 89.0627 7.455 90.6827 7.455C92.8427 7.455 94.5077 7.845 95.6777 8.625C96.8477 9.405 97.4327 10.41 97.4327 11.64C97.4327 12.21 97.2977 12.75 97.0277 13.26C96.7577 13.74 96.4427 14.16 96.0827 14.52C95.5727 14.28 94.9577 14.055 94.2377 13.845C93.5177 13.605 92.7377 13.485 91.8977 13.485ZM111.169 25.14C111.679 25.14 112.234 25.095 112.834 25.005C113.464 24.885 113.929 24.735 114.229 24.555V20.955L110.989 21.225C110.149 21.285 109.459 21.465 108.919 21.765C108.379 22.065 108.109 22.515 108.109 23.115C108.109 23.715 108.334 24.21 108.784 24.6C109.264 24.96 110.059 25.14 111.169 25.14ZM110.809 7.455C112.429 7.455 113.899 7.62 115.219 7.95C116.569 8.28 117.709 8.79 118.639 9.48C119.599 10.14 120.334 10.995 120.844 12.045C121.354 13.065 121.609 14.28 121.609 15.69V25.77C121.609 26.55 121.384 27.195 120.934 27.705C120.514 28.185 120.004 28.605 119.404 28.965C117.454 30.135 114.709 30.72 111.169 30.72C109.579 30.72 108.139 30.57 106.849 30.27C105.589 29.97 104.494 29.52 103.564 28.92C102.664 28.32 101.959 27.555 101.449 26.625C100.969 25.695 100.729 24.615 100.729 23.385C100.729 21.315 101.344 19.725 102.574 18.615C103.804 17.505 105.709 16.815 108.289 16.545L114.184 15.915V15.6C114.184 14.73 113.794 14.115 113.014 13.755C112.264 13.365 111.169 13.17 109.729 13.17C108.589 13.17 107.479 13.29 106.399 13.53C105.319 13.77 104.344 14.07 103.474 14.43C103.084 14.16 102.754 13.755 102.484 13.215C102.214 12.645 102.079 12.06 102.079 11.46C102.079 10.68 102.259 10.065 102.619 9.615C103.009 9.135 103.594 8.73 104.374 8.4C105.244 8.07 106.264 7.83 107.434 7.68C108.634 7.53 109.759 7.455 110.809 7.455ZM151.802 25.545C151.802 26.475 151.637 27.165 151.307 27.615C150.977 28.065 150.452 28.5 149.732 28.92C149.312 29.16 148.787 29.4 148.157 29.64C147.527 29.85 146.837 30.03 146.087 30.18C145.337 30.36 144.542 30.495 143.702 30.585C142.892 30.675 142.082 30.72 141.272 30.72C139.112 30.72 137.087 30.435 135.197 29.865C133.307 29.265 131.657 28.38 130.247 27.21C128.867 26.01 127.772 24.525 126.962 22.755C126.152 20.985 125.747 18.93 125.747 16.59C125.747 14.13 126.182 11.985 127.052 10.155C127.952 8.325 129.122 6.81 130.562 5.61C132.032 4.38 133.697 3.465 135.557 2.865C137.447 2.265 139.382 1.965 141.362 1.965C144.212 1.965 146.462 2.43 148.112 3.36C149.792 4.26 150.632 5.445 150.632 6.915C150.632 7.695 150.437 8.37 150.047 8.94C149.657 9.51 149.207 9.96 148.697 10.29C147.947 9.84 147.002 9.405 145.862 8.985C144.752 8.535 143.492 8.31 142.082 8.31C139.562 8.31 137.552 9.03 136.052 10.47C134.582 11.91 133.847 13.905 133.847 16.455C133.847 17.835 134.042 19.035 134.432 20.055C134.852 21.045 135.407 21.87 136.097 22.53C136.787 23.16 137.582 23.64 138.482 23.97C139.382 24.27 140.342 24.42 141.362 24.42C142.022 24.42 142.607 24.36 143.117 24.24C143.627 24.12 144.017 23.985 144.287 23.835V19.605H139.472C139.292 19.275 139.112 18.84 138.932 18.3C138.782 17.76 138.707 17.19 138.707 16.59C138.707 15.51 138.947 14.73 139.427 14.25C139.937 13.77 140.582 13.53 141.362 13.53H148.967C149.867 13.53 150.557 13.785 151.037 14.295C151.547 14.775 151.802 15.465 151.802 16.365V25.545ZM166.199 25.14C166.709 25.14 167.264 25.095 167.864 25.005C168.494 24.885 168.959 24.735 169.259 24.555V20.955L166.019 21.225C165.179 21.285 164.489 21.465 163.949 21.765C163.409 22.065 163.139 22.515 163.139 23.115C163.139 23.715 163.364 24.21 163.814 24.6C164.294 24.96 165.089 25.14 166.199 25.14ZM165.839 7.455C167.459 7.455 168.929 7.62 170.249 7.95C171.599 8.28 172.739 8.79 173.669 9.48C174.629 10.14 175.364 10.995 175.874 12.045C176.384 13.065 176.639 14.28 176.639 15.69V25.77C176.639 26.55 176.414 27.195 175.964 27.705C175.544 28.185 175.034 28.605 174.434 28.965C172.484 30.135 169.739 30.72 166.199 30.72C164.609 30.72 163.169 30.57 161.879 30.27C160.619 29.97 159.524 29.52 158.594 28.92C157.694 28.32 156.989 27.555 156.479 26.625C155.999 25.695 155.759 24.615 155.759 23.385C155.759 21.315 156.374 19.725 157.604 18.615C158.834 17.505 160.739 16.815 163.319 16.545L169.214 15.915V15.6C169.214 14.73 168.824 14.115 168.044 13.755C167.294 13.365 166.199 13.17 164.759 13.17C163.619 13.17 162.509 13.29 161.429 13.53C160.349 13.77 159.374 14.07 158.504 14.43C158.114 14.16 157.784 13.755 157.514 13.215C157.244 12.645 157.109 12.06 157.109 11.46C157.109 10.68 157.289 10.065 157.649 9.615C158.039 9.135 158.624 8.73 159.404 8.4C160.274 8.07 161.294 7.83 162.464 7.68C163.664 7.53 164.789 7.455 165.839 7.455ZM192.027 7.455C193.257 7.455 194.457 7.635 195.627 7.995C196.827 8.325 197.862 8.835 198.732 9.525C199.632 8.925 200.637 8.43 201.747 8.04C202.887 7.65 204.252 7.455 205.842 7.455C206.982 7.455 208.092 7.605 209.172 7.905C210.282 8.205 211.257 8.685 212.097 9.345C212.967 9.975 213.657 10.83 214.167 11.91C214.677 12.96 214.932 14.25 214.932 15.78V29.955C214.632 30.045 214.152 30.135 213.492 30.225C212.862 30.315 212.202 30.36 211.512 30.36C210.852 30.36 210.252 30.315 209.712 30.225C209.202 30.135 208.767 29.955 208.407 29.685C208.047 29.415 207.762 29.055 207.552 28.605C207.372 28.125 207.282 27.51 207.282 26.76V16.005C207.282 15.105 207.027 14.46 206.517 14.07C206.007 13.65 205.317 13.44 204.447 13.44C204.027 13.44 203.577 13.545 203.097 13.755C202.617 13.935 202.257 14.13 202.017 14.34C202.047 14.46 202.062 14.58 202.062 14.7C202.062 14.79 202.062 14.88 202.062 14.97V29.955C201.732 30.045 201.237 30.135 200.577 30.225C199.947 30.315 199.302 30.36 198.642 30.36C197.982 30.36 197.382 30.315 196.842 30.225C196.332 30.135 195.897 29.955 195.537 29.685C195.177 29.415 194.892 29.055 194.682 28.605C194.502 28.125 194.412 27.51 194.412 26.76V16.005C194.412 15.105 194.127 14.46 193.557 14.07C193.017 13.65 192.357 13.44 191.577 13.44C191.037 13.44 190.572 13.53 190.182 13.71C189.792 13.86 189.462 14.01 189.192 14.16V29.955C188.892 30.045 188.412 30.135 187.752 30.225C187.122 30.315 186.462 30.36 185.772 30.36C185.112 30.36 184.512 30.315 183.972 30.225C183.462 30.135 183.027 29.955 182.667 29.685C182.307 29.415 182.022 29.055 181.812 28.605C181.632 28.125 181.542 27.51 181.542 26.76V13.17C181.542 12.36 181.707 11.715 182.037 11.235C182.397 10.755 182.877 10.305 183.477 9.885C184.497 9.165 185.757 8.58 187.257 8.13C188.787 7.68 190.377 7.455 192.027 7.455ZM231.389 30.72C229.619 30.72 227.969 30.48 226.439 30C224.939 29.49 223.619 28.74 222.479 27.75C221.369 26.76 220.484 25.515 219.824 24.015C219.194 22.515 218.879 20.76 218.879 18.75C218.879 16.77 219.194 15.075 219.824 13.665C220.484 12.225 221.339 11.055 222.389 10.155C223.439 9.225 224.639 8.55 225.989 8.13C227.339 7.68 228.719 7.455 230.129 7.455C231.719 7.455 233.159 7.695 234.449 8.175C235.769 8.655 236.894 9.315 237.824 10.155C238.784 10.995 239.519 12 240.029 13.17C240.569 14.34 240.839 15.615 240.839 16.995C240.839 18.015 240.554 18.795 239.984 19.335C239.414 19.875 238.619 20.22 237.599 20.37L226.484 22.035C226.814 23.025 227.489 23.775 228.509 24.285C229.529 24.765 230.699 25.005 232.019 25.005C233.249 25.005 234.404 24.855 235.484 24.555C236.594 24.225 237.494 23.85 238.184 23.43C238.664 23.73 239.069 24.15 239.399 24.69C239.729 25.23 239.894 25.8 239.894 26.4C239.894 27.75 239.264 28.755 238.004 29.415C237.044 29.925 235.964 30.27 234.764 30.45C233.564 30.63 232.439 30.72 231.389 30.72ZM230.129 13.035C229.409 13.035 228.779 13.155 228.239 13.395C227.729 13.635 227.309 13.95 226.979 14.34C226.649 14.7 226.394 15.12 226.214 15.6C226.064 16.05 225.974 16.515 225.944 16.995L233.639 15.735C233.549 15.135 233.219 14.535 232.649 13.935C232.079 13.335 231.239 13.035 230.129 13.035Z" fill="#FCFDFE"/>
</svg>
