<svg width="50" height="50" viewBox="0 0 50 50" fill="none" xmlns="http://www.w3.org/2000/svg">
<path d="M44.5154 20.3162C45.1608 20.7523 45.8335 21.4357 45.8335 22.3958V25.5208C45.8335 26.4809 45.1608 27.1644 44.5154 27.6004C44.1491 27.8479 43.7145 28.0703 43.2293 28.2692V29.1667C43.2293 29.3817 43.1956 29.5828 43.136 29.7704C43.489 30.1609 43.7502 30.6517 43.7502 31.25V34.375C43.7502 35.3351 43.0775 36.0185 42.432 36.4546C41.7503 36.9151 40.8321 37.2888 39.7911 37.5863C37.6951 38.1852 34.8598 38.5417 31.771 38.5417C28.6822 38.5417 25.8469 38.1852 23.7508 37.5863C22.7099 37.2888 21.7917 36.9151 21.11 36.4546C20.4645 36.0185 19.7918 35.3351 19.7918 34.375V31.25C19.7918 31.035 19.8256 30.8338 19.8852 30.6462C19.5321 30.2558 19.271 29.7649 19.271 29.1667V26.0417C19.271 25.0816 19.9437 24.3981 20.5891 23.9621C20.9554 23.7146 21.39 23.4922 21.8752 23.2933V22.3958C21.8752 21.4357 22.5478 20.7523 23.1933 20.3162C23.8751 19.8557 24.7932 19.482 25.8342 19.1845C27.9303 18.5856 30.7655 18.2292 33.8543 18.2292C36.9431 18.2292 39.7784 18.5856 41.8745 19.1845C42.9154 19.482 43.8336 19.8557 44.5154 20.3162Z" fill="#021024" fill-opacity="0.1"/>
<path d="M41.6665 30.2083C41.6665 28.4825 36.7696 27.0833 30.729 27.0833C24.6884 27.0833 19.7915 28.4825 19.7915 30.2083V33.3333C19.7915 35.0592 24.6884 36.4583 30.729 36.4583C36.7696 36.4583 41.6665 35.0592 41.6665 33.3333V30.2083Z" fill="#D18A00"/>
<path fill-rule="evenodd" clip-rule="evenodd" d="M41.3902 28.1287C42.0357 28.5648 42.7083 29.2482 42.7083 30.2083V33.3333C42.7083 34.2934 42.0357 34.9769 41.3902 35.4129C40.7084 35.8735 39.7903 36.2472 38.7493 36.5446C36.6532 37.1435 33.818 37.5 30.7292 37.5C27.6404 37.5 24.8051 37.1435 22.709 36.5446C21.6681 36.2472 20.7499 35.8735 20.0681 35.4129C19.4227 34.9769 18.75 34.2934 18.75 33.3333V30.2083C18.75 29.2482 19.4227 28.5648 20.0681 28.1287C20.7499 27.6682 21.6681 27.2945 22.709 26.997C24.8051 26.3981 27.6404 26.0417 30.7292 26.0417C33.818 26.0417 36.6532 26.3981 38.7493 26.997C39.7903 27.2945 40.7084 27.6682 41.3902 28.1287ZM30.7292 27.0833C36.7698 27.0833 41.6667 28.4824 41.6667 30.2083V33.3333C41.6667 35.0592 36.7698 36.4583 30.7292 36.4583C24.6885 36.4583 19.7917 35.0592 19.7917 33.3333V30.2083C19.7917 28.4824 24.6885 27.0833 30.7292 27.0833Z" fill="#B96F00"/>
<path d="M41.6665 30.2083C41.6665 31.9342 36.7696 33.3333 30.729 33.3333C24.6884 33.3333 19.7915 31.9342 19.7915 30.2083C19.7915 28.4825 24.6884 27.0833 30.729 27.0833C36.7696 27.0833 41.6665 28.4825 41.6665 30.2083Z" fill="#FFCF23"/>
<path fill-rule="evenodd" clip-rule="evenodd" d="M38.7493 33.4196C36.6532 34.0185 33.818 34.375 30.7292 34.375C27.6404 34.375 24.8051 34.0185 22.709 33.4196C21.6681 33.1222 20.7499 32.7485 20.0681 32.2879C19.4227 31.8519 18.75 31.1684 18.75 30.2083C18.75 29.2482 19.4227 28.5648 20.0681 28.1287C20.7499 27.6682 21.6681 27.2945 22.709 26.997C24.8051 26.3981 27.6404 26.0417 30.7292 26.0417C33.818 26.0417 36.6532 26.3981 38.7493 26.997C39.7903 27.2945 40.7084 27.6682 41.3902 28.1287C42.0357 28.5648 42.7083 29.2482 42.7083 30.2083C42.7083 31.1684 42.0357 31.8519 41.3902 32.2879C40.7084 32.7485 39.7903 33.1222 38.7493 33.4196ZM30.7292 33.3333C36.7698 33.3333 41.6667 31.9342 41.6667 30.2083C41.6667 28.4824 36.7698 27.0833 30.7292 27.0833C24.6885 27.0833 19.7917 28.4824 19.7917 30.2083C19.7917 31.9342 24.6885 33.3333 30.7292 33.3333Z" fill="#B96F00"/>
<path fill-rule="evenodd" clip-rule="evenodd" d="M22.3958 32.2917C22.6835 32.2917 22.9167 32.5248 22.9167 32.8125V35.6771C22.9167 35.9647 22.6835 36.1979 22.3958 36.1979C22.1082 36.1979 21.875 35.9647 21.875 35.6771V32.8125C21.875 32.5248 22.1082 32.2917 22.3958 32.2917ZM39.0625 32.2917C39.3502 32.2917 39.5833 32.5248 39.5833 32.8125V35.6771C39.5833 35.9647 39.3502 36.1979 39.0625 36.1979C38.7748 36.1979 38.5417 35.9647 38.5417 35.6771V32.8125C38.5417 32.5248 38.7748 32.2917 39.0625 32.2917ZM26.5625 33.3333C26.8502 33.3333 27.0833 33.5665 27.0833 33.8542V36.1979C27.0833 36.4856 26.8502 36.7187 26.5625 36.7187C26.2748 36.7187 26.0417 36.4856 26.0417 36.1979V33.8542C26.0417 33.5665 26.2748 33.3333 26.5625 33.3333ZM35.4167 33.3333C35.7043 33.3333 35.9375 33.5665 35.9375 33.8542V36.1979C35.9375 36.4856 35.7043 36.7187 35.4167 36.7187C35.129 36.7187 34.8958 36.4856 34.8958 36.1979V33.8542C34.8958 33.5665 35.129 33.3333 35.4167 33.3333ZM31.25 33.3333C31.5377 33.3333 31.7708 33.5665 31.7708 33.8542V36.1979C31.7708 36.4856 31.5377 36.7187 31.25 36.7187C30.9623 36.7187 30.7292 36.4856 30.7292 36.1979V33.8542C30.7292 33.5665 30.9623 33.3333 31.25 33.3333Z" fill="#B96F00"/>
<path d="M41.146 25C41.146 23.2741 36.2491 21.875 30.2085 21.875C24.1679 21.875 19.271 23.2741 19.271 25V28.125C19.271 29.8509 24.1679 31.25 30.2085 31.25C36.2491 31.25 41.146 29.8509 41.146 28.125V25Z" fill="#D18A00"/>
<path fill-rule="evenodd" clip-rule="evenodd" d="M40.8692 22.9204C41.5147 23.3565 42.1873 24.0399 42.1873 25V28.125C42.1873 29.0851 41.5147 29.7686 40.8692 30.2046C40.1874 30.6652 39.2693 31.0389 38.2283 31.3363C36.1322 31.9352 33.297 32.2917 30.2082 32.2917C27.1194 32.2917 24.2841 31.9352 22.188 31.3363C21.1471 31.0389 20.2289 30.6652 19.5471 30.2046C18.9017 29.7686 18.229 29.0851 18.229 28.125V25C18.229 24.0399 18.9017 23.3565 19.5471 22.9204C20.2289 22.4599 21.1471 22.0862 22.188 21.7887C24.2841 21.1898 27.1194 20.8333 30.2082 20.8333C33.297 20.8333 36.1322 21.1898 38.2283 21.7887C39.2693 22.0862 40.1874 22.4599 40.8692 22.9204ZM30.2082 21.875C36.2488 21.875 41.1457 23.2741 41.1457 25V28.125C41.1457 29.8509 36.2488 31.25 30.2082 31.25C24.1675 31.25 19.2707 29.8509 19.2707 28.125V25C19.2707 23.2741 24.1675 21.875 30.2082 21.875Z" fill="#B96F00"/>
<path d="M41.146 25C41.146 26.7259 36.2491 28.125 30.2085 28.125C24.1679 28.125 19.271 26.7259 19.271 25C19.271 23.2741 24.1679 21.875 30.2085 21.875C36.2491 21.875 41.146 23.2741 41.146 25Z" fill="#FFCF23"/>
<path fill-rule="evenodd" clip-rule="evenodd" d="M38.2283 28.2113C36.1322 28.8102 33.297 29.1667 30.2082 29.1667C27.1194 29.1667 24.2841 28.8102 22.188 28.2113C21.1471 27.9139 20.2289 27.5402 19.5471 27.0796C18.9017 26.6436 18.229 25.9601 18.229 25C18.229 24.0399 18.9017 23.3565 19.5471 22.9204C20.2289 22.4599 21.1471 22.0862 22.188 21.7887C24.2841 21.1898 27.1194 20.8333 30.2082 20.8333C33.297 20.8333 36.1322 21.1898 38.2283 21.7887C39.2693 22.0862 40.1874 22.4599 40.8692 22.9204C41.5147 23.3565 42.1873 24.0399 42.1873 25C42.1873 25.9601 41.5147 26.6436 40.8692 27.0796C40.1874 27.5402 39.2693 27.9139 38.2283 28.2113ZM30.2082 28.125C36.2488 28.125 41.1457 26.7259 41.1457 25C41.1457 23.2741 36.2488 21.875 30.2082 21.875C24.1675 21.875 19.2707 23.2741 19.2707 25C19.2707 26.7259 24.1675 28.125 30.2082 28.125Z" fill="#B96F00"/>
<path fill-rule="evenodd" clip-rule="evenodd" d="M21.8748 27.0833C22.1625 27.0833 22.3957 27.3165 22.3957 27.6042V30.4688C22.3957 30.7564 22.1625 30.9896 21.8748 30.9896C21.5872 30.9896 21.354 30.7564 21.354 30.4688V27.6042C21.354 27.3165 21.5872 27.0833 21.8748 27.0833ZM38.5415 27.0833C38.8292 27.0833 39.0623 27.3165 39.0623 27.6042V30.4688C39.0623 30.7564 38.8292 30.9896 38.5415 30.9896C38.2538 30.9896 38.0207 30.7564 38.0207 30.4688V27.6042C38.0207 27.3165 38.2538 27.0833 38.5415 27.0833ZM26.0415 28.125C26.3292 28.125 26.5623 28.3582 26.5623 28.6458V30.9896C26.5623 31.2773 26.3292 31.5104 26.0415 31.5104C25.7538 31.5104 25.5207 31.2773 25.5207 30.9896V28.6458C25.5207 28.3582 25.7538 28.125 26.0415 28.125ZM34.8957 28.125C35.1833 28.125 35.4165 28.3582 35.4165 28.6458V30.9896C35.4165 31.2773 35.1833 31.5104 34.8957 31.5104C34.608 31.5104 34.3748 31.2773 34.3748 30.9896V28.6458C34.3748 28.3582 34.608 28.125 34.8957 28.125ZM30.729 28.125C31.0167 28.125 31.2498 28.3582 31.2498 28.6458V30.9896C31.2498 31.2773 31.0167 31.5104 30.729 31.5104C30.4413 31.5104 30.2082 31.2773 30.2082 30.9896V28.6458C30.2082 28.3582 30.4413 28.125 30.729 28.125Z" fill="#B96F00"/>
<path d="M43.75 21.3542C43.75 19.6283 38.8531 18.2292 32.8125 18.2292C26.7719 18.2292 21.875 19.6283 21.875 21.3542V24.4792C21.875 26.205 26.7719 27.6042 32.8125 27.6042C38.8531 27.6042 43.75 26.205 43.75 24.4792V21.3542Z" fill="#D18A00"/>
<path fill-rule="evenodd" clip-rule="evenodd" d="M43.4737 19.2746C44.1192 19.7106 44.7918 20.3941 44.7918 21.3542V24.4792C44.7918 25.4393 44.1192 26.1227 43.4737 26.5588C42.7919 27.0193 41.8738 27.393 40.8328 27.6905C38.7367 28.2894 35.9015 28.6458 32.8127 28.6458C29.7239 28.6458 26.8886 28.2894 24.7925 27.6905C23.7516 27.393 22.8334 27.0193 22.1516 26.5588C21.5062 26.1227 20.8335 25.4393 20.8335 24.4792V21.3542C20.8335 20.3941 21.5062 19.7106 22.1516 19.2746C22.8334 18.814 23.7516 18.4403 24.7925 18.1429C26.8886 17.544 29.7239 17.1875 32.8127 17.1875C35.9015 17.1875 38.7367 17.544 40.8328 18.1429C41.8738 18.4403 42.7919 18.814 43.4737 19.2746ZM32.8127 18.2292C38.8533 18.2292 43.7502 19.6283 43.7502 21.3542V24.4792C43.7502 26.2051 38.8533 27.6042 32.8127 27.6042C26.772 27.6042 21.8752 26.2051 21.8752 24.4792V21.3542C21.8752 19.6283 26.772 18.2292 32.8127 18.2292Z" fill="#B96F00"/>
<path d="M43.75 21.3542C43.75 23.08 38.8531 24.4792 32.8125 24.4792C26.7719 24.4792 21.875 23.08 21.875 21.3542C21.875 19.6283 26.7719 18.2292 32.8125 18.2292C38.8531 18.2292 43.75 19.6283 43.75 21.3542Z" fill="#FFCF23"/>
<path fill-rule="evenodd" clip-rule="evenodd" d="M40.8328 24.5655C38.7367 25.1644 35.9015 25.5208 32.8127 25.5208C29.7239 25.5208 26.8886 25.1644 24.7925 24.5655C23.7516 24.268 22.8334 23.8943 22.1516 23.4338C21.5062 22.9977 20.8335 22.3143 20.8335 21.3542C20.8335 20.3941 21.5062 19.7106 22.1516 19.2746C22.8334 18.814 23.7516 18.4403 24.7925 18.1429C26.8886 17.544 29.7239 17.1875 32.8127 17.1875C35.9015 17.1875 38.7367 17.544 40.8328 18.1429C41.8738 18.4403 42.7919 18.814 43.4737 19.2746C44.1192 19.7106 44.7918 20.3941 44.7918 21.3542C44.7918 22.3143 44.1192 22.9977 43.4737 23.4338C42.7919 23.8943 41.8738 24.268 40.8328 24.5655ZM32.8127 24.4792C38.8533 24.4792 43.7502 23.0801 43.7502 21.3542C43.7502 19.6283 38.8533 18.2292 32.8127 18.2292C26.772 18.2292 21.8752 19.6283 21.8752 21.3542C21.8752 23.0801 26.772 24.4792 32.8127 24.4792Z" fill="#B96F00"/>
<path fill-rule="evenodd" clip-rule="evenodd" d="M24.4793 23.4375C24.767 23.4375 25.0002 23.6707 25.0002 23.9583V26.8229C25.0002 27.1106 24.767 27.3438 24.4793 27.3438C24.1917 27.3438 23.9585 27.1106 23.9585 26.8229V23.9583C23.9585 23.6707 24.1917 23.4375 24.4793 23.4375ZM41.146 23.4375C41.4337 23.4375 41.6668 23.6707 41.6668 23.9583V26.8229C41.6668 27.1106 41.4337 27.3438 41.146 27.3438C40.8583 27.3438 40.6252 27.1106 40.6252 26.8229V23.9583C40.6252 23.6707 40.8583 23.4375 41.146 23.4375ZM28.646 24.4792C28.9337 24.4792 29.1668 24.7123 29.1668 25V27.3438C29.1668 27.6314 28.9337 27.8646 28.646 27.8646C28.3583 27.8646 28.1252 27.6314 28.1252 27.3438V25C28.1252 24.7123 28.3583 24.4792 28.646 24.4792ZM37.5002 24.4792C37.7878 24.4792 38.021 24.7123 38.021 25V27.3438C38.021 27.6314 37.7878 27.8646 37.5002 27.8646C37.2125 27.8646 36.9793 27.6314 36.9793 27.3438V25C36.9793 24.7123 37.2125 24.4792 37.5002 24.4792ZM33.3335 24.4792C33.6212 24.4792 33.8543 24.7123 33.8543 25V27.3438C33.8543 27.6314 33.6212 27.8646 33.3335 27.8646C33.0458 27.8646 32.8127 27.6314 32.8127 27.3438V25C32.8127 24.7123 33.0458 24.4792 33.3335 24.4792Z" fill="#B96F00"/>
<path d="M31.2498 17.1875C31.2498 16.2274 30.5772 15.544 29.9317 15.1079C29.2499 14.6474 28.3318 14.2737 27.2908 13.9762C25.1947 13.3773 22.3595 13.0208 19.2707 13.0208C16.1819 13.0208 13.3466 13.3773 11.2505 13.9762C10.2096 14.2737 9.2914 14.6474 8.60963 15.1079C7.96416 15.544 7.2915 16.2274 7.2915 17.1875V20.3125C7.2915 21.2726 7.96416 21.9561 8.60963 22.3921C9.0638 22.6989 9.62291 22.9672 10.2533 23.2001C10.0595 23.2486 9.87093 23.299 9.68801 23.3512C8.64708 23.6487 7.7289 24.0224 7.04713 24.4829C6.40166 24.919 5.729 25.6024 5.729 26.5625V29.6875C5.729 30.6476 6.40166 31.3311 7.04713 31.7671C7.65968 32.1809 8.46301 32.5246 9.37484 32.8058V32.9008C9.09583 33.0366 8.83932 33.1819 8.60963 33.3371C7.96416 33.7731 7.2915 34.4566 7.2915 35.4167V38.5417C7.2915 39.5018 7.96416 40.1852 8.60963 40.6213C9.2914 41.0818 10.2096 41.4555 11.2505 41.753C13.3466 42.3519 16.1819 42.7083 19.2707 42.7083C22.3595 42.7083 25.1947 42.3519 27.2908 41.753C28.3318 41.4555 29.2499 41.0818 29.9317 40.6213C30.5772 40.1852 31.2498 39.5018 31.2498 38.5417V36.3701C31.5288 36.2342 31.7854 36.0889 32.015 35.9338C32.6605 35.4977 33.3332 34.8143 33.3332 33.8542V30.7292C33.3332 29.7691 32.6605 29.0856 32.015 28.6496C31.6963 28.4343 31.3259 28.2379 30.9154 28.0595C31.7503 27.7895 32.4862 27.465 33.0567 27.0796C33.7022 26.6436 34.3748 25.9601 34.3748 25V21.875C34.3748 20.9149 33.7022 20.2315 33.0567 19.7954C32.5637 19.4624 31.9471 19.1747 31.2498 18.9286V17.1875Z" fill="#021024" fill-opacity="0.1"/>
<path d="M29.1665 34.375C29.1665 32.6491 24.2696 31.25 18.229 31.25C12.1884 31.25 7.2915 32.6491 7.2915 34.375V37.5C7.2915 39.2259 12.1884 40.625 18.229 40.625C24.2696 40.625 29.1665 39.2259 29.1665 37.5V34.375Z" fill="#D18A00"/>
<path fill-rule="evenodd" clip-rule="evenodd" d="M28.8902 32.2954C29.5357 32.7315 30.2083 33.4149 30.2083 34.375V37.5C30.2083 38.4601 29.5357 39.1436 28.8902 39.5796C28.2084 40.0402 27.2903 40.4139 26.2493 40.7113C24.1532 41.3102 21.318 41.6667 18.2292 41.6667C15.1404 41.6667 12.3051 41.3102 10.209 40.7113C9.16807 40.4139 8.2499 40.0402 7.56813 39.5796C6.92266 39.1436 6.25 38.4601 6.25 37.5V34.375C6.25 33.4149 6.92266 32.7315 7.56813 32.2954C8.2499 31.8349 9.16807 31.4612 10.209 31.1637C12.3051 30.5648 15.1404 30.2083 18.2292 30.2083C21.318 30.2083 24.1532 30.5648 26.2493 31.1637C27.2903 31.4612 28.2084 31.8349 28.8902 32.2954ZM18.2292 31.25C24.2698 31.25 29.1667 32.6491 29.1667 34.375V37.5C29.1667 39.2259 24.2698 40.625 18.2292 40.625C12.1885 40.625 7.29167 39.2259 7.29167 37.5V34.375C7.29167 32.6491 12.1885 31.25 18.2292 31.25Z" fill="#B96F00"/>
<path d="M29.1665 34.375C29.1665 36.1009 24.2696 37.5 18.229 37.5C12.1884 37.5 7.2915 36.1009 7.2915 34.375C7.2915 32.6491 12.1884 31.25 18.229 31.25C24.2696 31.25 29.1665 32.6491 29.1665 34.375Z" fill="#FFCF23"/>
<path fill-rule="evenodd" clip-rule="evenodd" d="M26.2493 37.5863C24.1532 38.1852 21.318 38.5417 18.2292 38.5417C15.1404 38.5417 12.3051 38.1852 10.209 37.5863C9.16807 37.2889 8.2499 36.9152 7.56813 36.4546C6.92266 36.0186 6.25 35.3351 6.25 34.375C6.25 33.4149 6.92266 32.7315 7.56813 32.2954C8.2499 31.8349 9.16807 31.4612 10.209 31.1637C12.3051 30.5648 15.1404 30.2083 18.2292 30.2083C21.318 30.2083 24.1532 30.5648 26.2493 31.1637C27.2903 31.4612 28.2084 31.8349 28.8902 32.2954C29.5357 32.7315 30.2083 33.4149 30.2083 34.375C30.2083 35.3351 29.5357 36.0186 28.8902 36.4546C28.2084 36.9152 27.2903 37.2889 26.2493 37.5863ZM18.2292 37.5C24.2698 37.5 29.1667 36.1009 29.1667 34.375C29.1667 32.6491 24.2698 31.25 18.2292 31.25C12.1885 31.25 7.29167 32.6491 7.29167 34.375C7.29167 36.1009 12.1885 37.5 18.2292 37.5Z" fill="#B96F00"/>
<path fill-rule="evenodd" clip-rule="evenodd" d="M9.89583 36.4583C10.1835 36.4583 10.4167 36.6915 10.4167 36.9792V39.8438C10.4167 40.1314 10.1835 40.3646 9.89583 40.3646C9.60818 40.3646 9.375 40.1314 9.375 39.8438V36.9792C9.375 36.6915 9.60818 36.4583 9.89583 36.4583ZM26.5625 36.4583C26.8502 36.4583 27.0833 36.6915 27.0833 36.9792V39.8438C27.0833 40.1314 26.8502 40.3646 26.5625 40.3646C26.2748 40.3646 26.0417 40.1314 26.0417 39.8438V36.9792C26.0417 36.6915 26.2748 36.4583 26.5625 36.4583ZM14.0625 37.5C14.3502 37.5 14.5833 37.7332 14.5833 38.0208V40.3646C14.5833 40.6523 14.3502 40.8854 14.0625 40.8854C13.7748 40.8854 13.5417 40.6523 13.5417 40.3646V38.0208C13.5417 37.7332 13.7748 37.5 14.0625 37.5ZM22.9167 37.5C23.2043 37.5 23.4375 37.7332 23.4375 38.0208V40.3646C23.4375 40.6523 23.2043 40.8854 22.9167 40.8854C22.629 40.8854 22.3958 40.6523 22.3958 40.3646V38.0208C22.3958 37.7332 22.629 37.5 22.9167 37.5ZM18.75 37.5C19.0377 37.5 19.2708 37.7332 19.2708 38.0208V40.3646C19.2708 40.6523 19.0377 40.8854 18.75 40.8854C18.4623 40.8854 18.2292 40.6523 18.2292 40.3646V38.0208C18.2292 37.7332 18.4623 37.5 18.75 37.5Z" fill="#B96F00"/>
<path d="M31.25 29.6875C31.25 27.9616 26.3531 26.5625 20.3125 26.5625C14.2719 26.5625 9.375 27.9616 9.375 29.6875V32.8125C9.375 34.5384 14.2719 35.9375 20.3125 35.9375C26.3531 35.9375 31.25 34.5384 31.25 32.8125V29.6875Z" fill="#D18A00"/>
<path fill-rule="evenodd" clip-rule="evenodd" d="M30.9737 27.6079C31.6192 28.044 32.2918 28.7274 32.2918 29.6875V32.8125C32.2918 33.7726 31.6192 34.4561 30.9737 34.8921C30.2919 35.3527 29.3738 35.7264 28.3328 36.0238C26.2367 36.6227 23.4015 36.9792 20.3127 36.9792C17.2239 36.9792 14.3886 36.6227 12.2925 36.0238C11.2516 35.7264 10.3334 35.3527 9.65162 34.8921C9.00615 34.4561 8.3335 33.7726 8.3335 32.8125V29.6875C8.3335 28.7274 9.00615 28.044 9.65162 27.6079C10.3334 27.1474 11.2516 26.7737 12.2925 26.4762C14.3886 25.8773 17.2239 25.5208 20.3127 25.5208C23.4015 25.5208 26.2367 25.8773 28.3328 26.4762C29.3738 26.7737 30.2919 27.1474 30.9737 27.6079ZM20.3127 26.5625C26.3533 26.5625 31.2502 27.9616 31.2502 29.6875V32.8125C31.2502 34.5384 26.3533 35.9375 20.3127 35.9375C14.272 35.9375 9.37516 34.5384 9.37516 32.8125V29.6875C9.37516 27.9616 14.272 26.5625 20.3127 26.5625Z" fill="#B96F00"/>
<path d="M31.25 29.6875C31.25 31.4134 26.3531 32.8125 20.3125 32.8125C14.2719 32.8125 9.375 31.4134 9.375 29.6875C9.375 27.9616 14.2719 26.5625 20.3125 26.5625C26.3531 26.5625 31.25 27.9616 31.25 29.6875Z" fill="#FFCF23"/>
<path fill-rule="evenodd" clip-rule="evenodd" d="M28.3328 32.8988C26.2367 33.4977 23.4015 33.8542 20.3127 33.8542C17.2239 33.8542 14.3886 33.4977 12.2925 32.8988C11.2516 32.6014 10.3334 32.2277 9.65162 31.7671C9.00615 31.3311 8.3335 30.6476 8.3335 29.6875C8.3335 28.7274 9.00615 28.044 9.65162 27.6079C10.3334 27.1474 11.2516 26.7737 12.2925 26.4762C14.3886 25.8773 17.2239 25.5208 20.3127 25.5208C23.4015 25.5208 26.2367 25.8773 28.3328 26.4762C29.3738 26.7737 30.2919 27.1474 30.9737 27.6079C31.6192 28.044 32.2918 28.7274 32.2918 29.6875C32.2918 30.6476 31.6192 31.3311 30.9737 31.7671C30.2919 32.2277 29.3738 32.6014 28.3328 32.8988ZM20.3127 32.8125C26.3533 32.8125 31.2502 31.4134 31.2502 29.6875C31.2502 27.9616 26.3533 26.5625 20.3127 26.5625C14.272 26.5625 9.37516 27.9616 9.37516 29.6875C9.37516 31.4134 14.272 32.8125 20.3127 32.8125Z" fill="#B96F00"/>
<path fill-rule="evenodd" clip-rule="evenodd" d="M11.9793 31.7708C12.267 31.7708 12.5002 32.004 12.5002 32.2917V35.1563C12.5002 35.4439 12.267 35.6771 11.9793 35.6771C11.6917 35.6771 11.4585 35.4439 11.4585 35.1563V32.2917C11.4585 32.004 11.6917 31.7708 11.9793 31.7708ZM28.646 31.7708C28.9337 31.7708 29.1668 32.004 29.1668 32.2917V35.1563C29.1668 35.4439 28.9337 35.6771 28.646 35.6771C28.3583 35.6771 28.1252 35.4439 28.1252 35.1563V32.2917C28.1252 32.004 28.3583 31.7708 28.646 31.7708ZM16.146 32.8125C16.4337 32.8125 16.6668 33.0457 16.6668 33.3333V35.6771C16.6668 35.9648 16.4337 36.1979 16.146 36.1979C15.8583 36.1979 15.6252 35.9648 15.6252 35.6771V33.3333C15.6252 33.0457 15.8583 32.8125 16.146 32.8125ZM25.0002 32.8125C25.2878 32.8125 25.521 33.0457 25.521 33.3333V35.6771C25.521 35.9648 25.2878 36.1979 25.0002 36.1979C24.7125 36.1979 24.4793 35.9648 24.4793 35.6771V33.3333C24.4793 33.0457 24.7125 32.8125 25.0002 32.8125ZM20.8335 32.8125C21.1212 32.8125 21.3543 33.0457 21.3543 33.3333V35.6771C21.3543 35.9648 21.1212 36.1979 20.8335 36.1979C20.5458 36.1979 20.3127 35.9648 20.3127 35.6771V33.3333C20.3127 33.0457 20.5458 32.8125 20.8335 32.8125Z" fill="#B96F00"/>
<path d="M27.604 25.5208C27.604 23.795 22.7071 22.3958 16.6665 22.3958C10.6259 22.3958 5.729 23.795 5.729 25.5208V28.6458C5.729 30.3717 10.6259 31.7708 16.6665 31.7708C22.7071 31.7708 27.604 30.3717 27.604 28.6458V25.5208Z" fill="#D18A00"/>
<path fill-rule="evenodd" clip-rule="evenodd" d="M27.3277 23.4412C27.9732 23.8773 28.6458 24.5607 28.6458 25.5208V28.6458C28.6458 29.6059 27.9732 30.2894 27.3277 30.7254C26.6459 31.186 25.7278 31.5597 24.6868 31.8571C22.5907 32.456 19.7555 32.8125 16.6667 32.8125C13.5779 32.8125 10.7426 32.456 8.64651 31.8571C7.60557 31.5597 6.6874 31.186 6.00563 30.7254C5.36016 30.2894 4.6875 29.6059 4.6875 28.6458V25.5208C4.6875 24.5607 5.36016 23.8773 6.00563 23.4412C6.6874 22.9807 7.60557 22.607 8.64651 22.3095C10.7426 21.7106 13.5779 21.3542 16.6667 21.3542C19.7555 21.3542 22.5907 21.7106 24.6868 22.3095C25.7278 22.607 26.6459 22.9807 27.3277 23.4412ZM16.6667 22.3958C22.7073 22.3958 27.6042 23.7949 27.6042 25.5208V28.6458C27.6042 30.3717 22.7073 31.7708 16.6667 31.7708C10.626 31.7708 5.72917 30.3717 5.72917 28.6458V25.5208C5.72917 23.7949 10.626 22.3958 16.6667 22.3958Z" fill="#B96F00"/>
<path d="M27.604 25.5208C27.604 27.2467 22.7071 28.6458 16.6665 28.6458C10.6259 28.6458 5.729 27.2467 5.729 25.5208C5.729 23.795 10.6259 22.3958 16.6665 22.3958C22.7071 22.3958 27.604 23.795 27.604 25.5208Z" fill="#FFCF23"/>
<path fill-rule="evenodd" clip-rule="evenodd" d="M24.6868 28.7321C22.5907 29.331 19.7555 29.6875 16.6667 29.6875C13.5779 29.6875 10.7426 29.331 8.64651 28.7321C7.60557 28.4347 6.6874 28.061 6.00563 27.6004C5.36016 27.1644 4.6875 26.4809 4.6875 25.5208C4.6875 24.5607 5.36016 23.8773 6.00563 23.4412C6.6874 22.9807 7.60557 22.607 8.64651 22.3095C10.7426 21.7106 13.5779 21.3542 16.6667 21.3542C19.7555 21.3542 22.5907 21.7106 24.6868 22.3095C25.7278 22.607 26.6459 22.9807 27.3277 23.4412C27.9732 23.8773 28.6458 24.5607 28.6458 25.5208C28.6458 26.4809 27.9732 27.1644 27.3277 27.6004C26.6459 28.061 25.7278 28.4347 24.6868 28.7321ZM16.6667 28.6458C22.7073 28.6458 27.6042 27.2467 27.6042 25.5208C27.6042 23.7949 22.7073 22.3958 16.6667 22.3958C10.626 22.3958 5.72917 23.7949 5.72917 25.5208C5.72917 27.2467 10.626 28.6458 16.6667 28.6458Z" fill="#B96F00"/>
<path fill-rule="evenodd" clip-rule="evenodd" d="M8.33333 27.6042C8.62099 27.6042 8.85417 27.8373 8.85417 28.125V30.9896C8.85417 31.2772 8.62099 31.5104 8.33333 31.5104C8.04568 31.5104 7.8125 31.2772 7.8125 30.9896V28.125C7.8125 27.8373 8.04568 27.6042 8.33333 27.6042ZM25 27.6042C25.2877 27.6042 25.5208 27.8373 25.5208 28.125V30.9896C25.5208 31.2772 25.2877 31.5104 25 31.5104C24.7123 31.5104 24.4792 31.2772 24.4792 30.9896V28.125C24.4792 27.8373 24.7123 27.6042 25 27.6042ZM12.5 28.6458C12.7877 28.6458 13.0208 28.879 13.0208 29.1667V31.5104C13.0208 31.7981 12.7877 32.0312 12.5 32.0312C12.2123 32.0312 11.9792 31.7981 11.9792 31.5104V29.1667C11.9792 28.879 12.2123 28.6458 12.5 28.6458ZM21.3542 28.6458C21.6418 28.6458 21.875 28.879 21.875 29.1667V31.5104C21.875 31.7981 21.6418 32.0312 21.3542 32.0312C21.0665 32.0312 20.8333 31.7981 20.8333 31.5104V29.1667C20.8333 28.879 21.0665 28.6458 21.3542 28.6458ZM17.1875 28.6458C17.4752 28.6458 17.7083 28.879 17.7083 29.1667V31.5104C17.7083 31.7981 17.4752 32.0312 17.1875 32.0312C16.8998 32.0312 16.6667 31.7981 16.6667 31.5104V29.1667C16.6667 28.879 16.8998 28.6458 17.1875 28.6458Z" fill="#B96F00"/>
<path d="M32.2915 20.8333C32.2915 19.1075 27.3946 17.7083 21.354 17.7083C15.3134 17.7083 10.4165 19.1075 10.4165 20.8333V23.9583C10.4165 25.6842 15.3134 27.0833 21.354 27.0833C27.3946 27.0833 32.2915 25.6842 32.2915 23.9583V20.8333Z" fill="#D18A00"/>
<path fill-rule="evenodd" clip-rule="evenodd" d="M32.0152 18.7537C32.6607 19.1898 33.3333 19.8732 33.3333 20.8333V23.9583C33.3333 24.9184 32.6607 25.6019 32.0152 26.0379C31.3334 26.4985 30.4153 26.8722 29.3743 27.1696C27.2782 27.7685 24.443 28.125 21.3542 28.125C18.2654 28.125 15.4301 27.7685 13.334 27.1696C12.2931 26.8722 11.3749 26.4985 10.6931 26.0379C10.0477 25.6019 9.375 24.9184 9.375 23.9583V20.8333C9.375 19.8732 10.0477 19.1898 10.6931 18.7537C11.3749 18.2932 12.2931 17.9195 13.334 17.622C15.4301 17.0231 18.2654 16.6667 21.3542 16.6667C24.443 16.6667 27.2782 17.0231 29.3743 17.622C30.4153 17.9195 31.3334 18.2932 32.0152 18.7537ZM21.3542 17.7083C27.3948 17.7083 32.2917 19.1074 32.2917 20.8333V23.9583C32.2917 25.6842 27.3948 27.0833 21.3542 27.0833C15.3135 27.0833 10.4167 25.6842 10.4167 23.9583V20.8333C10.4167 19.1074 15.3135 17.7083 21.3542 17.7083Z" fill="#B96F00"/>
<path d="M32.2915 20.8333C32.2915 22.5592 27.3946 23.9583 21.354 23.9583C15.3134 23.9583 10.4165 22.5592 10.4165 20.8333C10.4165 19.1075 15.3134 17.7083 21.354 17.7083C27.3946 17.7083 32.2915 19.1075 32.2915 20.8333Z" fill="#FFCF23"/>
<path fill-rule="evenodd" clip-rule="evenodd" d="M29.3743 24.0446C27.2782 24.6435 24.443 25 21.3542 25C18.2654 25 15.4301 24.6435 13.334 24.0446C12.2931 23.7472 11.3749 23.3735 10.6931 22.9129C10.0477 22.4769 9.375 21.7934 9.375 20.8333C9.375 19.8732 10.0477 19.1898 10.6931 18.7537C11.3749 18.2932 12.2931 17.9195 13.334 17.622C15.4301 17.0231 18.2654 16.6667 21.3542 16.6667C24.443 16.6667 27.2782 17.0231 29.3743 17.622C30.4153 17.9195 31.3334 18.2932 32.0152 18.7537C32.6607 19.1898 33.3333 19.8732 33.3333 20.8333C33.3333 21.7934 32.6607 22.4769 32.0152 22.9129C31.3334 23.3735 30.4153 23.7472 29.3743 24.0446ZM21.3542 23.9583C27.3948 23.9583 32.2917 22.5592 32.2917 20.8333C32.2917 19.1074 27.3948 17.7083 21.3542 17.7083C15.3135 17.7083 10.4167 19.1074 10.4167 20.8333C10.4167 22.5592 15.3135 23.9583 21.3542 23.9583Z" fill="#B96F00"/>
<path fill-rule="evenodd" clip-rule="evenodd" d="M13.0208 22.9167C13.3085 22.9167 13.5417 23.1498 13.5417 23.4375V26.3021C13.5417 26.5897 13.3085 26.8229 13.0208 26.8229C12.7332 26.8229 12.5 26.5897 12.5 26.3021V23.4375C12.5 23.1498 12.7332 22.9167 13.0208 22.9167ZM29.6875 22.9167C29.9752 22.9167 30.2083 23.1498 30.2083 23.4375V26.3021C30.2083 26.5897 29.9752 26.8229 29.6875 26.8229C29.3998 26.8229 29.1667 26.5897 29.1667 26.3021V23.4375C29.1667 23.1498 29.3998 22.9167 29.6875 22.9167ZM17.1875 23.9583C17.4752 23.9583 17.7083 24.1915 17.7083 24.4792V26.8229C17.7083 27.1106 17.4752 27.3437 17.1875 27.3437C16.8998 27.3437 16.6667 27.1106 16.6667 26.8229V24.4792C16.6667 24.1915 16.8998 23.9583 17.1875 23.9583ZM26.0417 23.9583C26.3293 23.9583 26.5625 24.1915 26.5625 24.4792V26.8229C26.5625 27.1106 26.3293 27.3437 26.0417 27.3437C25.754 27.3437 25.5208 27.1106 25.5208 26.8229V24.4792C25.5208 24.1915 25.754 23.9583 26.0417 23.9583ZM21.875 23.9583C22.1627 23.9583 22.3958 24.1915 22.3958 24.4792V26.8229C22.3958 27.1106 22.1627 27.3437 21.875 27.3437C21.5873 27.3437 21.3542 27.1106 21.3542 26.8229V24.4792C21.3542 24.1915 21.5873 23.9583 21.875 23.9583Z" fill="#B96F00"/>
<path d="M29.1665 16.1458C29.1665 14.42 24.2696 13.0208 18.229 13.0208C12.1884 13.0208 7.2915 14.42 7.2915 16.1458V19.2708C7.2915 20.9967 12.1884 22.3958 18.229 22.3958C24.2696 22.3958 29.1665 20.9967 29.1665 19.2708V16.1458Z" fill="#D18A00"/>
<path fill-rule="evenodd" clip-rule="evenodd" d="M28.8902 14.0662C29.5357 14.5023 30.2083 15.1857 30.2083 16.1458V19.2708C30.2083 20.2309 29.5357 20.9144 28.8902 21.3504C28.2084 21.811 27.2903 22.1847 26.2493 22.4821C24.1532 23.081 21.318 23.4375 18.2292 23.4375C15.1404 23.4375 12.3051 23.081 10.209 22.4821C9.16807 22.1847 8.2499 21.811 7.56813 21.3504C6.92266 20.9144 6.25 20.2309 6.25 19.2708V16.1458C6.25 15.1857 6.92266 14.5023 7.56813 14.0662C8.2499 13.6057 9.16807 13.232 10.209 12.9345C12.3051 12.3356 15.1404 11.9792 18.2292 11.9792C21.318 11.9792 24.1532 12.3356 26.2493 12.9345C27.2903 13.232 28.2084 13.6057 28.8902 14.0662ZM18.2292 13.0208C24.2698 13.0208 29.1667 14.4199 29.1667 16.1458V19.2708C29.1667 20.9967 24.2698 22.3958 18.2292 22.3958C12.1885 22.3958 7.29167 20.9967 7.29167 19.2708V16.1458C7.29167 14.4199 12.1885 13.0208 18.2292 13.0208Z" fill="#B96F00"/>
<path d="M29.1665 16.1458C29.1665 17.8717 24.2696 19.2708 18.229 19.2708C12.1884 19.2708 7.2915 17.8717 7.2915 16.1458C7.2915 14.42 12.1884 13.0208 18.229 13.0208C24.2696 13.0208 29.1665 14.42 29.1665 16.1458Z" fill="#FFD952"/>
<path fill-rule="evenodd" clip-rule="evenodd" d="M26.2493 19.3571C24.1532 19.956 21.318 20.3125 18.2292 20.3125C15.1404 20.3125 12.3051 19.956 10.209 19.3571C9.16807 19.0597 8.2499 18.686 7.56813 18.2254C6.92266 17.7894 6.25 17.1059 6.25 16.1458C6.25 15.1857 6.92266 14.5023 7.56813 14.0662C8.2499 13.6057 9.16807 13.232 10.209 12.9345C12.3051 12.3356 15.1404 11.9792 18.2292 11.9792C21.318 11.9792 24.1532 12.3356 26.2493 12.9345C27.2903 13.232 28.2084 13.6057 28.8902 14.0662C29.5357 14.5023 30.2083 15.1857 30.2083 16.1458C30.2083 17.1059 29.5357 17.7894 28.8902 18.2254C28.2084 18.686 27.2903 19.0597 26.2493 19.3571ZM18.2292 19.2708C24.2698 19.2708 29.1667 17.8717 29.1667 16.1458C29.1667 14.4199 24.2698 13.0208 18.2292 13.0208C12.1885 13.0208 7.29167 14.4199 7.29167 16.1458C7.29167 17.8717 12.1885 19.2708 18.2292 19.2708Z" fill="#B96F00"/>
<path d="M24.479 15.8854C24.479 16.8922 21.6808 17.7083 18.229 17.7083C14.7772 17.7083 11.979 16.8922 11.979 15.8854C11.979 14.8786 14.7772 14.0625 18.229 14.0625C21.6808 14.0625 24.479 14.8786 24.479 15.8854Z" fill="#FEE790"/>
<path fill-rule="evenodd" clip-rule="evenodd" d="M9.89583 18.2292C10.1835 18.2292 10.4167 18.4623 10.4167 18.75V21.6146C10.4167 21.9022 10.1835 22.1354 9.89583 22.1354C9.60818 22.1354 9.375 21.9022 9.375 21.6146V18.75C9.375 18.4623 9.60818 18.2292 9.89583 18.2292ZM26.5625 18.2292C26.8502 18.2292 27.0833 18.4623 27.0833 18.75V21.6146C27.0833 21.9022 26.8502 22.1354 26.5625 22.1354C26.2748 22.1354 26.0417 21.9022 26.0417 21.6146V18.75C26.0417 18.4623 26.2748 18.2292 26.5625 18.2292ZM14.0625 19.2708C14.3502 19.2708 14.5833 19.504 14.5833 19.7917V22.1354C14.5833 22.4231 14.3502 22.6562 14.0625 22.6562C13.7748 22.6562 13.5417 22.4231 13.5417 22.1354V19.7917C13.5417 19.504 13.7748 19.2708 14.0625 19.2708ZM22.9167 19.2708C23.2043 19.2708 23.4375 19.504 23.4375 19.7917V22.1354C23.4375 22.4231 23.2043 22.6562 22.9167 22.6562C22.629 22.6562 22.3958 22.4231 22.3958 22.1354V19.7917C22.3958 19.504 22.629 19.2708 22.9167 19.2708ZM18.75 19.2708C19.0377 19.2708 19.2708 19.504 19.2708 19.7917V22.1354C19.2708 22.4231 19.0377 22.6562 18.75 22.6562C18.4623 22.6562 18.2292 22.4231 18.2292 22.1354V19.7917C18.2292 19.504 18.4623 19.2708 18.75 19.2708Z" fill="#B96F00"/>
<path fill-rule="evenodd" clip-rule="evenodd" d="M7.81234 15.625C8.09999 15.625 8.33317 15.8582 8.33317 16.1458C8.33317 16.2206 8.39952 16.4276 8.86515 16.7173C9.30301 16.9897 9.9713 17.2541 10.8433 17.4836C12.5796 17.9405 15.0069 18.2292 17.7082 18.2292C17.9958 18.2292 18.229 18.4623 18.229 18.75C18.229 19.0377 17.9958 19.2708 17.7082 19.2708C14.9441 19.2708 12.4235 18.9766 10.5782 18.4909C9.65942 18.2492 8.87848 17.9524 8.31484 17.6017C7.779 17.2683 7.2915 16.7902 7.2915 16.1458C7.2915 15.8582 7.52468 15.625 7.81234 15.625Z" fill="#FFF1B9"/>
<path d="M38.021 45.8333C43.1987 45.8333 47.396 41.636 47.396 36.4583C47.396 31.2807 43.1987 27.0833 38.021 27.0833C32.8433 27.0833 28.646 31.2807 28.646 36.4583C28.646 41.636 32.8433 45.8333 38.021 45.8333Z" fill="#021024" fill-opacity="0.1"/>
<path d="M45.8332 35.9375C45.8332 40.5399 42.1022 44.2708 37.4998 44.2708C32.8974 44.2708 29.1665 40.5399 29.1665 35.9375C29.1665 31.3351 32.8974 27.6042 37.4998 27.6042C42.1022 27.6042 45.8332 31.3351 45.8332 35.9375Z" fill="#FFCF23"/>
<path fill-rule="evenodd" clip-rule="evenodd" d="M46.875 35.9375C46.875 41.1152 42.6777 45.3125 37.5 45.3125C32.3223 45.3125 28.125 41.1152 28.125 35.9375C28.125 30.7598 32.3223 26.5625 37.5 26.5625C42.6777 26.5625 46.875 30.7598 46.875 35.9375ZM37.5 44.2708C42.1024 44.2708 45.8333 40.5399 45.8333 35.9375C45.8333 31.3351 42.1024 27.6042 37.5 27.6042C32.8976 27.6042 29.1667 31.3351 29.1667 35.9375C29.1667 40.5399 32.8976 44.2708 37.5 44.2708Z" fill="#B96F00"/>
<path fill-rule="evenodd" clip-rule="evenodd" d="M37.5 29.1667C33.7606 29.1667 30.7292 32.1981 30.7292 35.9375C30.7292 39.6769 33.7606 42.7083 37.5 42.7083C41.2394 42.7083 44.2708 39.6769 44.2708 35.9375C44.2708 32.1981 41.2394 29.1667 37.5 29.1667ZM29.6875 35.9375C29.6875 31.6228 33.1853 28.125 37.5 28.125C41.8147 28.125 45.3125 31.6228 45.3125 35.9375C45.3125 40.2522 41.8147 43.75 37.5 43.75C33.1853 43.75 29.6875 40.2522 29.6875 35.9375Z" fill="#F9B300"/>
<path fill-rule="evenodd" clip-rule="evenodd" d="M37.4998 30.2083C34.3357 30.2083 31.7707 32.7734 31.7707 35.9375C31.7707 36.2251 31.5375 36.4583 31.2498 36.4583C30.9622 36.4583 30.729 36.2251 30.729 35.9375C30.729 32.1981 33.7604 29.1667 37.4998 29.1667C37.7875 29.1667 38.0207 29.3998 38.0207 29.6875C38.0207 29.9751 37.7875 30.2083 37.4998 30.2083Z" fill="#FFE792"/>
<path fill-rule="evenodd" clip-rule="evenodd" d="M33.7477 30.9347C33.9219 31.1636 33.8775 31.4904 33.6485 31.6645C33.4972 31.7796 33.3541 31.9222 33.2239 32.09C33.0476 32.3173 32.7204 32.3587 32.4932 32.1824C32.2659 32.0061 32.2245 31.6789 32.4008 31.4517C32.5822 31.2178 32.7889 31.0096 33.0178 30.8355C33.2468 30.6613 33.5735 30.7057 33.7477 30.9347Z" fill="#FFF8DF"/>
<path d="M42.7083 34.8958C42.7083 35.1835 42.4752 35.4167 42.1875 35.4167C41.8998 35.4167 41.6667 35.1835 41.6667 34.8958C41.6667 34.6082 41.8998 34.375 42.1875 34.375C42.4752 34.375 42.7083 34.6082 42.7083 34.8958ZM43.75 36.9792C43.75 37.2668 43.5168 37.5 43.2292 37.5C42.9415 37.5 42.7083 37.2668 42.7083 36.9792C42.7083 36.6915 42.9415 36.4583 43.2292 36.4583C43.5168 36.4583 43.75 36.6915 43.75 36.9792ZM42.7083 39.0625C42.7083 39.3502 42.4752 39.5833 42.1875 39.5833C41.8998 39.5833 41.6667 39.3502 41.6667 39.0625C41.6667 38.7748 41.8998 38.5417 42.1875 38.5417C42.4752 38.5417 42.7083 38.7748 42.7083 39.0625ZM40.1042 40.625C40.1042 40.9127 39.871 41.1458 39.5833 41.1458C39.2957 41.1458 39.0625 40.9127 39.0625 40.625C39.0625 40.3373 39.2957 40.1042 39.5833 40.1042C39.871 40.1042 40.1042 40.3373 40.1042 40.625ZM38.5417 41.6667C38.5417 41.9543 38.3085 42.1875 38.0208 42.1875C37.7332 42.1875 37.5 41.9543 37.5 41.6667C37.5 41.379 37.7332 41.1458 38.0208 41.1458C38.3085 41.1458 38.5417 41.379 38.5417 41.6667ZM42.1875 37.5C42.1875 37.7877 41.9543 38.0208 41.6667 38.0208C41.379 38.0208 41.1458 37.7877 41.1458 37.5C41.1458 37.2123 41.379 36.9792 41.6667 36.9792C41.9543 36.9792 42.1875 37.2123 42.1875 37.5ZM41.1458 35.9375C41.1458 36.2252 40.9127 36.4583 40.625 36.4583C40.3373 36.4583 40.1042 36.2252 40.1042 35.9375C40.1042 35.6498 40.3373 35.4167 40.625 35.4167C40.9127 35.4167 41.1458 35.6498 41.1458 35.9375ZM41.1458 39.0625C41.1458 39.3502 40.9127 39.5833 40.625 39.5833C40.3373 39.5833 40.1042 39.3502 40.1042 39.0625C40.1042 38.7748 40.3373 38.5417 40.625 38.5417C40.9127 38.5417 41.1458 38.7748 41.1458 39.0625Z" fill="#F9B300"/>
<path fill-rule="evenodd" clip-rule="evenodd" d="M38.0642 32.5521C36.5448 32.5521 35.1562 33.9757 35.1562 35.9375C35.1562 37.8993 36.5448 39.3229 38.0642 39.3229C38.6368 39.3229 39.1757 39.13 39.6351 38.785C39.9801 38.5259 40.4698 38.5956 40.7289 38.9406C40.988 39.2856 40.9183 39.7754 40.5733 40.0344C39.864 40.5671 39.0002 40.8854 38.0642 40.8854C35.5086 40.8854 33.5938 38.5781 33.5938 35.9375C33.5938 33.2969 35.5086 30.9896 38.0642 30.9896C39.0002 30.9896 39.864 31.3079 40.5733 31.8406C40.9183 32.0996 40.988 32.5894 40.7289 32.9344C40.4698 33.2794 39.9801 33.3491 39.6351 33.09C39.1757 32.7451 38.6368 32.5521 38.0642 32.5521Z" fill="#B96F00"/>
<path fill-rule="evenodd" clip-rule="evenodd" d="M32.2915 36.9792C32.2915 36.6915 32.5247 36.4583 32.8123 36.4583H36.979C37.2667 36.4583 37.4998 36.6915 37.4998 36.9792C37.4998 37.2668 37.2667 37.5 36.979 37.5H32.8123C32.5247 37.5 32.2915 37.2668 32.2915 36.9792ZM32.2915 34.8958C32.2915 34.6082 32.5247 34.375 32.8123 34.375H36.979C37.2667 34.375 37.4998 34.6082 37.4998 34.8958C37.4998 35.1835 37.2667 35.4167 36.979 35.4167H32.8123C32.5247 35.4167 32.2915 35.1835 32.2915 34.8958Z" fill="#B96F00"/>
</svg>
