<svg width="34" height="34" viewBox="0 0 34 34" fill="none" xmlns="http://www.w3.org/2000/svg">
<path d="M11.4615 34H3.3998C3.20723 34 3.04785 33.8406 3.04785 33.648V25.2145C3.04785 24.2383 3.83809 23.4414 4.8209 23.4414H11.4018C11.4217 34.2258 11.342 33.6879 11.4615 34ZM21.8873 15.7582V33.648C21.8873 33.8406 21.7279 34 21.5354 34H12.4643C12.2717 34 12.1123 33.8406 12.1123 33.648V15.7582C12.1123 14.782 12.9025 13.9852 13.8854 13.9852H20.1209C21.0971 13.9852 21.8873 14.782 21.8873 15.7582ZM30.9518 21.3031V33.648C30.9518 33.8406 30.7924 34 30.5998 34H22.5314C22.651 33.6879 22.5713 34.4051 22.5979 19.5301H29.1854C30.1549 19.5301 30.9518 20.327 30.9518 21.3031ZM20.36 6.36172C20.2736 6.44141 20.2338 6.56094 20.2604 6.67383L20.6256 8.80547C20.6986 9.21055 20.5326 9.60898 20.2072 9.84805C19.8553 10.1004 19.417 10.107 19.085 9.92773L17.1658 8.925C17.0662 8.87187 16.94 8.87187 16.8338 8.925L14.9146 9.92773C14.5561 10.1203 14.1311 10.0871 13.7924 9.84805C13.4604 9.60898 13.301 9.21055 13.374 8.80547L13.7393 6.67383C13.7592 6.56094 13.7193 6.44141 13.6396 6.36172L12.0924 4.84766C11.8002 4.56211 11.7006 4.14375 11.8201 3.75859C11.9463 3.3668 12.2783 3.09453 12.6768 3.03477L14.8217 2.7293C14.9412 2.70937 15.0408 2.63633 15.0873 2.53672L16.0502 0.597656C16.2295 0.225781 16.5947 0 16.9998 0C17.4049 0 17.7701 0.225781 17.9494 0.591016L18.9057 2.53008C18.9588 2.62969 19.0584 2.70937 19.1713 2.72266L21.3162 3.02812C21.7213 3.08789 22.0467 3.3668 22.1729 3.75195C22.299 4.13711 22.1928 4.55547 21.9006 4.84102L20.36 6.36172Z" fill="#1D91E9"/>
</svg>
