<svg width="20" height="20" viewBox="0 0 20 20" fill="none" xmlns="http://www.w3.org/2000/svg">
<path d="M18.9453 4.27598L15.2831 0.613798C14.8901 0.220792 14.3571 2.90626e-06 13.8013 0H2.09562C0.938225 0 0 0.938225 0 2.09562V17.4635C0 18.6209 0.938225 19.5591 2.09562 19.5591H17.4635C18.6209 19.5591 19.5591 18.6209 19.5591 17.4635V5.7578C19.5591 5.20201 19.3383 4.66898 18.9453 4.27598ZM9.77955 16.7649C8.23639 16.7649 6.98539 15.5139 6.98539 13.9708C6.98539 12.4276 8.23639 11.1766 9.77955 11.1766C11.3227 11.1766 12.5737 12.4276 12.5737 13.9708C12.5737 15.5139 11.3227 16.7649 9.77955 16.7649ZM13.9708 3.46999V7.85857C13.9708 8.14789 13.7362 8.38247 13.4469 8.38247H3.31806C3.02873 8.38247 2.79416 8.14789 2.79416 7.85857V3.31806C2.79416 3.02873 3.02873 2.79416 3.31806 2.79416H13.2949C13.4339 2.79416 13.5672 2.84934 13.6654 2.94762L13.8173 3.09955C13.866 3.14819 13.9046 3.20594 13.9309 3.2695C13.9572 3.33307 13.9708 3.40119 13.9708 3.46999Z" fill="white"/>
</svg>
